<?xml version="1.0" standalone="no"?>
<!DOCTYPE svg PUBLIC "-//W3C//DTD SVG 20010904//EN"
 "http://www.w3.org/TR/2001/REC-SVG-20010904/DTD/svg10.dtd">
<svg version="1.0" xmlns="http://www.w3.org/2000/svg"
 width="512.000000pt" height="512.000000pt" viewBox="0 0 512.000000 512.000000"
 preserveAspectRatio="xMidYMid meet">
<metadata>
Created by potrace 1.11, written by Peter Selinger 2001-2013
</metadata>
<g transform="translate(0.000000,512.000000) scale(0.100000,-0.100000)"
fill="#000000" stroke="none">
<path d="M1403 5105 c-37 -26 -43 -76 -43 -377 l0 -288 -656 -2 -656 -3 -24
-28 -24 -28 0 -2163 0 -2163 26 -27 27 -26 1264 0 c843 0 1271 3 1283 10 47
25 45 -56 50 2002 l5 1947 508 -1947 c308 -1182 515 -1957 526 -1972 38 -52
23 -55 722 131 569 151 658 177 682 201 15 14 27 36 27 47 0 29 -1017 3928
-1034 3967 -8 17 -27 36 -44 43 -27 11 -91 -4 -687 -163 -506 -135 -664 -181
-682 -197 l-23 -22 0 492 c0 524 -2 545 -48 570 -14 8 -204 11 -599 11 -503 0
-581 -2 -600 -15z m1067 -325 l0 -170 -465 0 -465 0 0 170 0 170 465 0 465 0
0 -170z m0 -470 l0 -130 -465 0 -465 0 0 130 0 130 465 0 465 0 0 -130z
m-1110 -170 l0 -120 -590 0 -590 0 0 120 0 120 590 0 590 0 0 -120z m2599 63
c59 -224 80 -307 78 -309 -10 -11 -1101 -294 -1107 -287 -10 11 -92 334 -87
340 7 6 1067 291 1089 292 12 1 20 -11 27 -36z m-1489 -1683 l0 -1490 -465 0
-465 0 0 1490 0 1490 465 0 465 0 0 -1490z m-1110 40 l0 -1280 -590 0 -590 0
0 1280 0 1280 590 0 590 0 0 -1280z m2744 1089 c10 -39 16 -72 14 -74 -7 -8
-1100 -296 -1105 -292 -2 3 -13 37 -22 75 l-18 69 541 146 c297 80 548 146
556 146 11 1 21 -20 34 -70z m66 -252 c0 -2 110 -426 245 -942 134 -516 242
-941 240 -943 -3 -3 -252 -71 -555 -152 l-550 -147 -9 36 c-5 20 -116 445
-246 944 -130 500 -234 911 -232 914 7 6 1067 291 1090 292 9 1 17 0 17 -2z
m579 -2218 c23 -89 39 -164 36 -167 -3 -3 -252 -71 -554 -152 l-550 -146 -20
75 c-39 147 -64 252 -60 255 4 4 1078 293 1095 295 6 0 30 -72 53 -160z
m-3389 -199 l0 -120 -590 0 -590 0 0 120 0 120 590 0 590 0 0 -120z m1110
-215 l0 -85 -465 0 -465 0 0 85 0 85 465 0 465 0 0 -85z m2412 -97 c40 -153
43 -174 29 -181 -31 -15 -1092 -294 -1095 -288 -8 16 -89 342 -85 345 4 4
1077 293 1095 295 6 0 31 -77 56 -171z m-3522 -238 l0 -250 -590 0 -590 0 0
250 0 250 590 0 590 0 0 -250z m1110 -90 l0 -170 -465 0 -465 0 0 170 0 170
465 0 465 0 0 -170z"/>
<path d="M400 3583 c-8 -3 -25 -15 -37 -26 l-23 -20 0 -379 0 -379 25 -24 24
-25 379 0 379 0 24 26 24 26 3 361 c2 260 -1 369 -9 390 -23 56 -35 57 -421
56 -194 0 -360 -3 -368 -6z m620 -428 l0 -255 -252 2 -253 3 -3 253 -2 252
255 0 255 0 0 -255z"/>
</g>
</svg>
